{
  "accessors": [
    {
      "bufferView": 2,
      "componentType": 5126,
      "count": 6876,
      "max": [
        -2.493741750717163,
        5.850549221038818,
        4.043062210083008
      ],
      "min": [
        -5.045015811920166,
        3.676546573638916,
        1.9272091388702393
      ],
      "type": "VEC3"
    },
    {
      "bufferView": 2,
      "byteOffset": 82512,
      "componentType": 5126,
      "count": 6876,
      "max": [
        0.9995982050895691,
        0.9989360570907593,
        0.9944839477539063
      ],
      "min": [
        -0.9999293684959412,
        -0.9999922513961792,
        -0.9999983906745911
      ],
      "type": "VEC3"
    },
    {
      "bufferView": 3,
      "componentType": 5126,
      "count": 6876,
      "max": [
        0.7921568751335144,
        0.9882352948188782,
        0.5411764979362488,
        1.0
      ],
      "min": [
        0.14901961386203766,
        0.5098039507865906,
        0.0,
        1.0
      ],
      "type": "VEC4"
    },
    {
      "bufferView": 1,
      "componentType": 5126,
      "count": 6876,
      "max": [
        1.0,
        1.0
      ],
      "min": [
        0.0,
        0.0
      ],
      "type": "VEC2"
    },
    {
      "bufferView": 0,
      "componentType": 5125,
      "count": 19962,
      "type": "SCALAR"
    },
    {
      "bufferView": 2,
      "byteOffset": 165024,
      "componentType": 5126,
      "count": 9422,
      "max": [
        -3.2445342540740967,
        4.5939764976501465,
        2.9344096183776855
      ],
      "min": [
        -3.626502752304077,
        1.6587390899658203,
        2.355832815170288
      ],
      "type": "VEC3"
    },
    {
      "bufferView": 2,
      "byteOffset": 278088,
      "componentType": 5126,
      "count": 9422,
      "max": [
        0.9996306896209717,
        0.9985396265983582,
        1.0
      ],
      "min": [
        -0.9996306896209717,
        -0.9985396265983582,
        -1.0
      ],
      "type": "VEC3"
    },
    {
      "bufferView": 3,
      "byteOffset": 110016,
      "componentType": 5126,
      "count": 9422,
      "max": [
        0.8745098114013672,
        0.8509804010391235,
        0.7215686440467834,
        1.0
      ],
      "min": [
        0.3294117748737335,
        0.2666666805744171,
        0.20000000298023224,
        1.0
      ],
      "type": "VEC4"
    },
    {
      "bufferView": 1,
      "byteOffset": 55008,
      "componentType": 5126,
      "count": 9422,
      "max": [
        4.041160583496094,
        1.0
      ],
      "min": [
        -0.016826096922159195,
        0.0
      ],
      "type": "VEC2"
    },
    {
      "bufferView": 0,
      "byteOffset": 79848,
      "componentType": 5125,
      "count": 32928,
      "type": "SCALAR"
    },
    {
      "bufferView": 2,
      "byteOffset": 391152,
      "componentType": 5126,
      "count": 76,
      "max": [
        -2.972212553024292,
        1.8377310037612915,
        2.782846689224243
      ],
      "min": [
        -3.714341402053833,
        1.497886061668396,
        1.8589792251586914
      ],
      "type": "VEC3"
    },
    {
      "bufferView": 2,
      "byteOffset": 392064,
      "componentType": 5126,
      "count": 76,
      "max": [
        0.012109915725886822,
        0.9947106838226318,
        0.4071219265460968
      ],
      "min": [
        -0.6910118460655212,
        0.3936746120452881,
        -0.8484662175178528
      ],
      "type": "VEC3"
    },
    {
      "bufferView": 3,
      "byteOffset": 260768,
      "componentType": 5126,
      "count": 76,
      "max": [
        0.8745098114013672,
        0.8509804010391235,
        0.7215686440467834,
        1.0
      ],
      "min": [
        0.6078431606292725,
        0.5568627715110779,
        0.27450981736183167,
        1.0
      ],
      "type": "VEC4"
    },
    {
      "bufferView": 1,
      "byteOffset": 130384,
      "componentType": 5126,
      "count": 76,
      "max": [
        1.0,
        1.0
      ],
      "min": [
        0.0,
        0.0
      ],
      "type": "VEC2"
    },
    {
      "bufferView": 0,
      "byteOffset": 211560,
      "componentType": 5125,
      "count": 204,
      "type": "SCALAR"
    },
    {
      "bufferView": 2,
      "byteOffset": 392976,
      "componentType": 5126,
      "count": 80,
      "max": [
        -3.1043550968170166,
        2.0491204261779785,
        2.750844955444336
      ],
      "min": [
        -3.6757709980010986,
        1.4206113815307617,
        2.038872718811035
      ],
      "type": "VEC3"
    },
    {
      "bufferView": 2,
      "byteOffset": 393936,
      "componentType": 5126,
      "count": 80,
      "max": [
        0.8070719838142395,
        0.6003787517547607,
        0.8630629181861877
      ],
      "min": [
        -0.9696275591850281,
        -0.1290476769208908,
        -0.5399941205978394
      ],
      "type": "VEC3"
    },
    {
      "bufferView": 3,
      "byteOffset": 261984,
      "componentType": 5126,
      "count": 80,
      "max": [
        0.6431372761726379,
        0.5058823823928833,
        0.21176470816135406,
        1.0
      ],
      "min": [
        0.6431372761726379,
        0.5058823823928833,
        0.21176470816135406,
        1.0
      ],
      "type": "VEC4"
    },
    {
      "bufferView": 1,
      "byteOffset": 130992,
      "componentType": 5126,
      "count": 80,
      "max": [
        1.0,
        1.0
      ],
      "min": [
        0.0,
        0.0
      ],
      "type": "VEC2"
    },
    {
      "bufferView": 0,
      "byteOffset": 212376,
      "componentType": 5125,
      "count": 120,
      "type": "SCALAR"
    }
  ],
  "asset": {
    "extras": {
      "author": "Lorna Inman (https://sketchfab.com/LornaInman)",
      "license": "CC-BY-4.0 (http://creativecommons.org/licenses/by/4.0/)",
      "source": "https://sketchfab.com/3d-models/sugarcane-9cce581fb3874e2a9dc516789c09b00f",
      "title": "Sugarcane"
    },
    "generator": "Sketchfab-12.67.0",
    "version": "2.0"
  },
  "bufferViews": [
    {
      "buffer": 0,
      "byteLength": 212856,
      "name": "floatBufferViews",
      "target": 34963
    },
    {
      "buffer": 0,
      "byteLength": 131632,
      "byteOffset": 212856,
      "byteStride": 8,
      "name": "floatBufferViews",
      "target": 34962
    },
    {
      "buffer": 0,
      "byteLength": 394896,
      "byteOffset": 344488,
      "byteStride": 12,
      "name": "floatBufferViews",
      "target": 34962
    },
    {
      "buffer": 0,
      "byteLength": 263264,
      "byteOffset": 739384,
      "byteStride": 16,
      "name": "floatBufferViews",
      "target": 34962
    }
  ],
  "buffers": [
    {
      "byteLength": 1002648,
      "uri": "scene.bin"
    }
  ],
  "images": [
    {
      "uri": "textures/brush_CoarseBristles_baseColor.png"
    }
  ],
  "materials": [
    {
      "doubleSided": true,
      "name": "brush_DoubleTaperedFlat"
    },
    {
      "doubleSided": true,
      "name": "brush_Wire"
    },
    {
      "doubleSided": true,
      "name": "brush_DoubleTaperedMarker"
    },
    {
      "alphaCutoff": 0.25,
      "alphaMode": "MASK",
      "doubleSided": true,
      "name": "brush_CoarseBristles",
      "pbrMetallicRoughness": {
        "baseColorTexture": {
          "index": 0
        },
        "metallicFactor": 0.0
      }
    }
  ],
  "meshes": [
    {
      "name": "Object_0",
      "primitives": [
        {
          "attributes": {
            "COLOR_0": 2,
            "NORMAL": 1,
            "POSITION": 0,
            "TEXCOORD_0": 3
          },
          "indices": 4,
          "material": 0,
          "mode": 4
        }
      ]
    },
    {
      "name": "Object_1",
      "primitives": [
        {
          "attributes": {
            "COLOR_0": 7,
            "NORMAL": 6,
            "POSITION": 5,
            "TEXCOORD_0": 8
          },
          "indices": 9,
          "material": 1,
          "mode": 4
        }
      ]
    },
    {
      "name": "Object_2",
      "primitives": [
        {
          "attributes": {
            "COLOR_0": 12,
            "NORMAL": 11,
            "POSITION": 10,
            "TEXCOORD_0": 13
          },
          "indices": 14,
          "material": 2,
          "mode": 4
        }
      ]
    },
    {
      "name": "Object_3",
      "primitives": [
        {
          "attributes": {
            "COLOR_0": 17,
            "NORMAL": 16,
            "POSITION": 15,
            "TEXCOORD_0": 18
          },
          "indices": 19,
          "material": 3,
          "mode": 4
        }
      ]
    }
  ],
  "nodes": [
    {
      "children": [
        1
      ],
      "matrix": [
        1.0,
        0.0,
        0.0,
        0.0,
        0.0,
        2.220446049250313e-16,
        -1.0,
        0.0,
        0.0,
        1.0,
        2.220446049250313e-16,
        0.0,
        0.0,
        0.0,
        0.0,
        1.0
      ],
      "name": "Sketchfab_model"
    },
    {
      "children": [
        2
      ],
      "name": "root"
    },
    {
      "children": [
        3,
        8,
        10
      ],
      "matrix": [
        1.0,
        0.0,
        0.0,
        0.0,
        0.0,
        2.220446049250313e-16,
        1.0,
        0.0,
        0.0,
        -1.0,
        2.220446049250313e-16,
        0.0,
        0.0,
        0.0,
        0.0,
        1.0
      ],
      "name": "GLTF_SceneRootNode"
    },
    {
      "children": [
        4,
        6
      ],
      "name": "node_group_1_0"
    },
    {
      "children": [
        5
      ],
      "name": "brush_DoubleTaperedFlat_g1_b0_1"
    },
    {
      "mesh": 0,
      "name": "Object_5"
    },
    {
      "children": [
        7
      ],
      "name": "brush_Wire_g1_b0_4"
    },
    {
      "mesh": 1,
      "name": "Object_7"
    },
    {
      "children": [
        9
      ],
      "name": "brush_DoubleTaperedMarker_g0_b0_5"
    },
    {
      "mesh": 2,
      "name": "Object_9"
    },
    {
      "children": [
        11
      ],
      "name": "brush_CoarseBristles_g0_b0_6"
    },
    {
      "mesh": 3,
      "name": "Object_11"
    }
  ],
  "samplers": [
    {
      "magFilter": 9729,
      "minFilter": 9987,
      "wrapS": 10497,
      "wrapT": 10497
    }
  ],
  "scene": 0,
  "scenes": [
    {
      "name": "Sketchfab_Scene",
      "nodes": [
        0
      ]
    }
  ],
  "textures": [
    {
      "sampler": 0,
      "source": 0
    }
  ]
}
